<svg xmlns="http://www.w3.org/2000/svg" width="384.747" height="384.747" viewBox="0 0 384.747 384.747">
  <g id="Group_2716" data-name="Group 2716" transform="translate(-4750.745 378.26)">
    <circle id="Ellipse_61" data-name="Ellipse 61" cx="136.028" cy="136.028" r="136.028" transform="translate(4750.745 -185.887) rotate(-45)" fill="#fdf5a4"/>
    <path id="Path_4009" data-name="Path 4009" d="M5559.942,686.5c2,4.827,4.548,10.035,1.324,14.87-5.406,7.967-17.356,5.122-20.771-2.845a25.334,25.334,0,0,1-1.255-3.885c-.165,0-.332-.005-.5-.007a15.967,15.967,0,0,1-3.94,8.16,12.084,12.084,0,0,1-16.788,1.423c-5.631-4.548-4.339-11.074-2.271-17.2-8.586,3.587-17.381,10.74-20.778,15.2-5.876,7.72.915,21.487,5.762,36.3a135.492,135.492,0,0,0,83.118-34.869,12.146,12.146,0,0,0-1.24-2C5579.042,696.969,5568.975,690.105,5559.942,686.5Z" transform="translate(-549.523 -788.615)" fill="#f494b4"/>
    <path id="Path_4010" data-name="Path 4010" d="M5559.942,686.5c2,4.827,4.548,10.035,1.325,14.87-5.407,7.967-17.357,5.122-20.772-2.845a25.333,25.333,0,0,1-1.254-3.885c-.075,0-.15,0-.224,0l-.273,0a15.974,15.974,0,0,1-3.94,8.16,12.084,12.084,0,0,1-16.788,1.423c-5.631-4.548-4.339-11.074-2.271-17.2-8.585,3.587-17.38,10.74-20.778,15.2-5.876,7.72.916,21.487,5.762,36.3a135.894,135.894,0,0,0,23.83-3.528l-1.144-23.65c7.2-.251,14.476-5.561,15.669-12.4,3.5,4.963,8.054,9.587,14.321,9.887l-.99,16.123a136.273,136.273,0,0,0,31.432-21.3,12.085,12.085,0,0,0-1.24-2C5579.043,696.969,5568.975,690.105,5559.942,686.5Z" transform="translate(-549.523 -788.615)" fill="#cbacbe" opacity="0.71" style="mix-blend-mode: multiply;isolation: isolate"/>
    <g id="Group_2651" data-name="Group 2651" transform="translate(4900.829 -110.053)">
      <path id="Path_4011" data-name="Path 4011" d="M5332.24,655.9a66.867,66.867,0,0,0,25.347,2.2c13.889-1.532,48.246,1.915,49.343,17.239s-77.486,9.96-77.486,9.96Z" transform="translate(-5329.443 -655.899)" fill="#41beb1"/>
      <path id="Path_4012" data-name="Path 4012" d="M5342.348,672.66a25.907,25.907,0,0,1-3.3-2.595,24.506,24.506,0,0,0-6.052-3.172c-.395-.15-.779-.306-1.157-.466l-2.4,25.182s78.583,5.363,77.486-9.961c-.8-11.124-19.119-15.989-34.417-17.234-3.776,1.433-7.22,3.432-10.91,4.785C5355.277,671.507,5348.95,675.255,5342.348,672.66Z" transform="translate(-5329.443 -662.206)" fill="#20a08e" opacity="0.64"/>
    </g>
    <path id="Path_4013" data-name="Path 4013" d="M5108.409,621.6c1.932-.7,3.877-1.358,5.825-2.01q-.193-.452-.368-.906c-3.353.413-6.852.947-10.284,1.639.2.968.455,1.92.748,2.855C5105.67,622.608,5107.039,622.1,5108.409,621.6Z" transform="translate(-261.329 -738.391)" fill="#008b80"/>
    <path id="Path_4014" data-name="Path 4014" d="M5187.512,619.351c-4.045,4.128-8.715,7.626-14.29,9.033-11.063,2.766-20.515-7-23.251-16.855-3.129.073-6.405.242-9.635.561,1.365,12.452,11.126,23.037,23.622,26.2,12.225,2.966,23.368-4.953,28.86-15.321A46.341,46.341,0,0,0,5187.512,619.351Z" transform="translate(-288.551 -733.089)" fill="#009e8a"/>
    <path id="Path_4015" data-name="Path 4015" d="M5171.658,660.576l3.914-3.44c.745-.655,1.429-1.37,2.131-2.068q-.36-.349-.707-.713a59.213,59.213,0,0,0-8.676,5.6q.878,1,1.843,1.935Q5170.91,661.235,5171.658,660.576Z" transform="translate(-309.278 -764.809)" fill="#008b80"/>
    <path id="Path_4016" data-name="Path 4016" d="M5211.3,681.365c.856-1.787,1.719-3.581,2.7-5.307.2-.354.409-.706.615-1.06-.167-.053-.333-.108-.5-.167-.077.138-.154.28-.243.413-.394.595-.861,1.157-1.3,1.719-.9,1.149-1.84,2.272-2.768,3.4-.694.845-1.382,1.7-2.047,2.562q1.138.554,2.325,1.019C5210.49,683.088,5210.89,682.223,5211.3,681.365Z" transform="translate(-338.485 -779.974)" fill="#008b80"/>
    <path id="Path_4017" data-name="Path 4017" d="M5233.7,683.406c.35-1.732.5-3.487.74-5.229-.123-.007-.246-.012-.368-.022-.331.609-.687,1.205-1.025,1.791-.877,1.52-1.647,3.093-2.406,4.673-.46.955-.912,1.914-1.372,2.87.185.05.37.1.556.148a22.332,22.332,0,0,0,2.693.482C5232.956,686.556,5233.382,684.992,5233.7,683.406Z" transform="translate(-354.423 -782.436)" fill="#008b80"/>
    <path id="Path_4018" data-name="Path 4018" d="M5257.927,676.881c-.263.058-.525.112-.786.156-.359,2.149-.459,4.347-.934,6.478-.283,1.271-.613,2.529-.951,3.786a21.82,21.82,0,0,0,2.621-.278C5257.917,683.64,5258.126,680.253,5257.927,676.881Z" transform="translate(-373.668 -781.492)" fill="#008b80"/>
    <path id="Path_4019" data-name="Path 4019" d="M5323.252,647.033c.154.2.306.4.457.61.485-.762.943-1.54,1.364-2.334a46.3,46.3,0,0,0-5.306-3.619q-.427.436-.865.86A40.963,40.963,0,0,1,5323.252,647.033Z" transform="translate(-420.808 -755.428)" fill="#008b80"/>
    <path id="Path_4020" data-name="Path 4020" d="M5311.987,658.489a41.034,41.034,0,0,0-4.47-4.656c-.187.156-.372.315-.562.467.4.6.816,1.191,1.228,1.793a43.139,43.139,0,0,1,2.453,4.151c.2.37.4.741.6,1.113.536-.581,1.05-1.184,1.543-1.8C5312.516,659.2,5312.253,658.842,5311.987,658.489Z" transform="translate(-411.958 -764.422)" fill="#008b80"/>
    <path id="Path_4021" data-name="Path 4021" d="M5298.247,669.483a40.292,40.292,0,0,0-2.533-4.4c-.392-.564-.791-1.124-1.174-1.693-.206.134-.41.27-.619.4.792,3.058,1.733,6.08,2.487,9.145a29.421,29.421,0,0,0,2.592-2C5298.752,670.446,5298.5,669.965,5298.247,669.483Z" transform="translate(-402.304 -771.501)" fill="#008b80"/>
    <path id="Path_4022" data-name="Path 4022" d="M5279.313,671.327c-.3.134-.6.263-.9.385.241,3.449.027,6.907-.02,10.361a24.726,24.726,0,0,0,3.419-1.423C5281.1,677.515,5280.148,674.435,5279.313,671.327Z" transform="translate(-390.803 -777.379)" fill="#008b80"/>
    <path id="Path_4023" data-name="Path 4023" d="M5190.9,671c1.041-1.265,2.086-2.527,3.071-3.835.164-.217.316-.441.464-.665q-.742-.436-1.449-.939c-.789.772-1.539,1.584-2.369,2.313l-3.758,3.3-1.445,1.274a32.6,32.6,0,0,0,2.774,1.942C5189.069,673.236,5189.984,672.113,5190.9,671Z" transform="translate(-321.942 -773.105)" fill="#008b80"/>
    <path id="Path_4024" data-name="Path 4024" d="M5164.045,640.834q-.4-.549-.765-1.115c-3.131,1.411-6.227,2.9-9.454,4.076a30.727,30.727,0,0,0,1.663,2.651A65.052,65.052,0,0,1,5164.045,640.834Z" transform="translate(-298.543 -753.968)" fill="#008b80"/>
    <path id="Path_4025" data-name="Path 4025" d="M5155.375,627.438c-.049-.1-.1-.2-.146-.305-2.058.46-4.114.925-6.161,1.436-1.229.307-2.457.621-3.667.995q.321.948.707,1.871C5149.28,630.32,5152.314,628.841,5155.375,627.438Z" transform="translate(-292.303 -744.647)" fill="#008b80"/>
    <g id="Group_2654" data-name="Group 2654" transform="translate(4858.709 -136.799)">
      <path id="Path_4026" data-name="Path 4026" d="M5227.1,577.51a19.892,19.892,0,0,0,6.493-4.741c-1.443-.654-2.876-1.246-4.259-1.764l2-7.028a8.641,8.641,0,0,0-6.074-10.649l-.86-.237a8.825,8.825,0,0,0-10.817,5.994l-2.552,8.954-.473-.012C5213.917,573.957,5220.232,580.249,5227.1,577.51Z" transform="translate(-5199.273 -552.773)" fill="#fddcbe"/>
      <path id="Path_4027" data-name="Path 4027" d="M5229.7,569.843a8.647,8.647,0,0,0,4.473.773l1.892-6.639a8.641,8.641,0,0,0-6.074-10.649l-.86-.237a8.825,8.825,0,0,0-10.816,5.994l-1.369,4.8c.46.142.908.3,1.354.486C5222.192,565.925,5225.825,568.083,5229.7,569.843Z" transform="translate(-5204.002 -552.773)" fill="#fddcbe" opacity="0.89" style="mix-blend-mode: multiply;isolation: isolate"/>
      <path id="Path_4028" data-name="Path 4028" d="M5209.1,616.161a19.894,19.894,0,0,1-6.493,4.741c-6.869,2.74-13.184-3.553-16.539-9.482-2.6-.066-5.515-.088-8.578-.017,2.737,9.854,12.188,19.621,23.251,16.855,5.575-1.407,10.244-4.9,14.29-9.033A62.3,62.3,0,0,0,5209.1,616.161Z" transform="translate(-5174.776 -596.165)" fill="#faf6e1"/>
      <g id="Group_2652" data-name="Group 2652" transform="translate(0.268 13.654)" opacity="0.5" style="mix-blend-mode: multiply;isolation: isolate">
        <path id="Path_4029" data-name="Path 4029" d="M5179.826,605.419l-11.756,2.118s7.107,27.107,7.837,26.405,15.911-15.518,15.911-15.518Z" transform="translate(-5168.07 -605.419)" fill="#93bad2"/>
        <path id="Path_4030" data-name="Path 4030" d="M5265.418,622.648l11.355,7.132s-5.973,17.845-6.582,17.04-11.5-15.52-11.5-15.52Z" transform="translate(-5235.188 -618.18)" fill="#93bad2"/>
      </g>
      <g id="Group_2653" data-name="Group 2653" transform="translate(0 12.914)">
        <path id="Path_4031" data-name="Path 4031" d="M5178.814,602.567l-11.779,2.46s8.015,23.984,8.738,23.376,16.155-12.7,16.155-12.7Z" transform="translate(-5167.035 -602.567)" fill="#93bad2"/>
        <path id="Path_4032" data-name="Path 4032" d="M5266.48,619.9l11.616,6.839s-5.789,15.578-6.405,14.867-11.8-13.255-11.8-13.255Z" transform="translate(-5235.807 -615.403)" fill="#93bad2"/>
      </g>
    </g>
    <g id="Group_2686" data-name="Group 2686" transform="translate(4820.693 -252.846)">
      <g id="Group_2676" data-name="Group 2676" transform="translate(0 0)">
        <g id="Group_2671" data-name="Group 2671">
          <g id="Group_2655" data-name="Group 2655" transform="translate(0 69.661)">
            <path id="Path_4033" data-name="Path 4033" d="M5041.6,388.752c-.484,7.825-2.406,13.338-8.24,12.978s-13.368-6.458-12.884-14.283,5.607-13.876,11.44-13.516S5042.082,380.927,5041.6,388.752Z" transform="translate(-5020.451 -373.916)" fill="#fddcbe"/>
            <path id="Path_4034" data-name="Path 4034" d="M5042.367,392.226c-1.6-1.118-4.135-.59-5.815.82a10.192,10.192,0,0,0-1.843,5.584c1.6-2.009,4.362-5.338,6.458-2.7a8.294,8.294,0,0,1,1.366,2.135,4.971,4.971,0,0,0-4.322.879c-1.8,1.7-1.326,4.208-.144,6.093.376-1.507.493-3.078,1.783-3.831a1.314,1.314,0,0,1,1.756.692c.071.817-1.218,1.57-1.147,2.387.134.565.206,1.382.986,1.571a4.335,4.335,0,0,0,1.562.4c-.264,1.764-.6,3.507-.738,5.129C5048.189,406.425,5048.432,396.626,5042.367,392.226Z" transform="translate(-5031.011 -387.031)" fill="#fddcbe" opacity="0.89" style="mix-blend-mode: multiply;isolation: isolate"/>
          </g>
          <g id="Group_2656" data-name="Group 2656" transform="translate(102.854 75.476)">
            <path id="Path_4035" data-name="Path 4035" d="M5417.106,409.982c-.4,7.83.888,13.524,6.725,13.824s14.012-4.91,14.412-12.739-4.007-14.42-9.844-14.719S5417.507,402.152,5417.106,409.982Z" transform="translate(-5417.04 -396.336)" fill="#fddcbe"/>
            <path id="Path_4036" data-name="Path 4036" d="M5443.173,415.147c1.721-.93,4.177-.12,5.687,1.471a10.183,10.183,0,0,1,1.2,5.756c-1.366-2.177-3.733-5.8-6.113-3.409a8.306,8.306,0,0,0-1.6,1.968,4.97,4.97,0,0,1,4.2,1.361c1.6,1.888.843,4.331-.545,6.071-.2-1.54-.142-3.114-1.339-4.008a1.314,1.314,0,0,0-1.823.489c-.163.8,1.034,1.7.871,2.5-.2.547-.36,1.35-1.156,1.45a4.356,4.356,0,0,1-1.6.221c.063,1.783.2,3.553.156,5.179C5435.788,428.6,5436.652,418.835,5443.173,415.147Z" transform="translate(-5432.292 -409.977)" fill="#fddcbe" opacity="0.89" style="mix-blend-mode: multiply;isolation: isolate"/>
          </g>
          <path id="Path_4037" data-name="Path 4037" d="M5168.54,221.968c.271-29.772-9.833-57.99-46.005-60.035-35.259-1.994-51.008,24.732-53.087,54.432-2.624,37.478,11.315,55.082,32.737,57.83,3.129,2.527,7.969,4.3,13.479,4.61,6.083.344,11.554-1.172,14.917-3.764C5153.511,273.766,5168.253,253.4,5168.54,221.968Z" transform="translate(-5056.506 -147.172)" fill="#fddcbe"/>
          <path id="Path_4038" data-name="Path 4038" d="M5326.277,479.167c1.075,2.862,3.782,5.183,7.012,4.907a95.274,95.274,0,0,1-13.573,21.426c8.205-6,15.121-14.035,17.107-24.317C5333.371,481.218,5329.365,481.032,5326.277,479.167Z" transform="translate(-5242.103 -382.209)" fill="#fddcbe" opacity="0.89" style="mix-blend-mode: multiply;isolation: isolate"/>
          <path id="Path_4039" data-name="Path 4039" d="M5146.68,468.237c-1.391,2.722-4.343,4.724-7.521,4.085a95.225,95.225,0,0,0,11.071,22.82c-7.478-6.884-13.443-15.65-14.258-26.09C5139.4,469.475,5143.4,469.742,5146.68,468.237Z" transform="translate(-5106.012 -374.114)" fill="#fddcbe" opacity="0.89" style="mix-blend-mode: multiply;isolation: isolate"/>
          <path id="Path_4040" data-name="Path 4040" d="M5113.986,419.584c2.779,5.495,8.175,9.452,14.4,8.68,4.473-.635,7.677-3.619,10.2-7.121C5131.763,426.576,5120.946,424.314,5113.986,419.584Z" transform="translate(-5089.729 -338.079)" fill="#fddcbe" opacity="0.89" style="mix-blend-mode: multiply;isolation: isolate"/>
          <path id="Path_4041" data-name="Path 4041" d="M5308.441,422.416a13.335,13.335,0,0,0,9.872,10.916c6.658,1.5,13.352-2.616,16.749-8.043C5326.919,428.426,5313.417,430.787,5308.441,422.416Z" transform="translate(-5233.752 -340.177)" fill="#fddcbe" opacity="0.89" style="mix-blend-mode: multiply;isolation: isolate"/>
          <path id="Path_4042" data-name="Path 4042" d="M5087.365,179.84a29.637,29.637,0,0,1,14.212-7.905c-3.5,2.33-4.316,6.779-6.467,10.029,10.112-14.88,30.692-11.187,46.047-9.477,7.265.692,12.3,6.033,17.648,10.831-5.949,5.844-5.4,15.989-.1,21.626,4.371,4.421,8.58,8.913,11.676,13.966-.443-28.619-11.064-55-45.994-56.976-33.793-1.911-49.662,22.559-52.754,50.744a22.938,22.938,0,0,1,1.931-2.434C5081.649,201.429,5090.028,192.351,5087.365,179.84Z" transform="translate(-5058.36 -147.172)" fill="#fddcbe" opacity="0.89" style="mix-blend-mode: multiply;isolation: isolate"/>
          <path id="Path_4043" data-name="Path 4043" d="M5211.127,548.223a14.337,14.337,0,0,0,8.809,6.544c6.378,1.484,11.92-2.135,16.623-5.8C5228.485,551.676,5218.736,553.3,5211.127,548.223Z" transform="translate(-5161.676 -433.356)" fill="#fddcbe" opacity="0.89" style="mix-blend-mode: multiply;isolation: isolate"/>
          <path id="Path_4044" data-name="Path 4044" d="M5280.449,370.26c-2.012,5.786,2.791,10.271,5.93,14.382-2.058-6.128-4.078-12.87-2.077-19.123A12.143,12.143,0,0,0,5280.449,370.26Z" transform="translate(-5212.666 -298.036)" fill="#fddcbe" opacity="0.89" style="mix-blend-mode: multiply;isolation: isolate"/>
          <g id="Group_2657" data-name="Group 2657" transform="translate(23.112 50.583)">
            <path id="Path_4045" data-name="Path 4045" d="M5114.268,312.412c3.65-6.9,10.155-6.976,16.1-4.614,1.286.511,2.721-.657,3.03-2.147a3.176,3.176,0,0,0-1.823-3.651,19.2,19.2,0,0,0-11.915-1.15c-4.191,1.084-7.518,4.358-9.772,8.619a3.386,3.386,0,0,0,.983,4.08c1.243.836,2.675.227,3.4-1.136Z" transform="translate(-5109.569 -300.354)" fill="#c9c4c7"/>
          </g>
          <g id="Group_2658" data-name="Group 2658" transform="translate(78.646 54.073)">
            <path id="Path_4046" data-name="Path 4046" d="M5340.872,325.888c-2.579-6.579-8.693-7.515-14.581-6.226a2.37,2.37,0,0,1-2.585-2.3,2.788,2.788,0,0,1,2.17-2.978,19.377,19.377,0,0,1,11.357.58c3.81,1.517,6.534,4.851,8.127,8.914a2.9,2.9,0,0,1-1.432,3.468,2.272,2.272,0,0,1-3.056-1.458Z" transform="translate(-5323.696 -313.811)" fill="#c9c4c7"/>
          </g>
          <g id="Group_2659" data-name="Group 2659" transform="translate(23.115 50.583)">
            <path id="Path_4047" data-name="Path 4047" d="M5154.732,304.252a.734.734,0,0,0-.2.068C5154.6,304.294,5154.666,304.276,5154.732,304.252Z" transform="translate(-5142.873 -303.241)" fill="#e6e7e8"/>
            <path id="Path_4048" data-name="Path 4048" d="M5131.581,302a19.2,19.2,0,0,0-11.915-1.15c-4.191,1.084-7.518,4.358-9.771,8.619a3.052,3.052,0,0,0-.287,1.815,12.917,12.917,0,0,1,8.529-7.063,7.771,7.771,0,0,0-2.526.268c1.972-1.673,4.776-1.659,7.027-2.769-.49,0-.764-.431-1.2-.355-.067.024-.134.042-.2.068a.728.728,0,0,1,.2-.068c3.586-1.268,7.149-.139,10.168,1.8a3.487,3.487,0,0,1,1.78,2.556c.005-.025.014-.049.019-.074A3.177,3.177,0,0,0,5131.581,302Z" transform="translate(-5109.578 -300.354)" fill="#e6e7e8"/>
          </g>
          <g id="Group_2660" data-name="Group 2660" transform="translate(78.654 54.073)">
            <path id="Path_4049" data-name="Path 4049" d="M5345.382,323.877c-1.592-4.062-4.318-7.4-8.127-8.913a19.379,19.379,0,0,0-11.357-.58,2.778,2.778,0,0,0-2.171,2.571,7.757,7.757,0,0,1,4.907-2.221c-.562.278-.846.837-1.408,1.115,4.22-2.5,8.415.043,12.333,1.746,0-.281-.558-.564-.557-.844,1.955,1.693,3.064,4.223,4.457,6.193a4,4,0,0,1-.552-1.686c.753,1.527,1.894,2.927,2.458,4.458A2.627,2.627,0,0,0,5345.382,323.877Z" transform="translate(-5323.727 -313.811)" fill="#e6e7e8"/>
          </g>
          <g id="Group_2664" data-name="Group 2664" transform="translate(29.671 67.761)">
            <g id="Group_2661" data-name="Group 2661" opacity="0.75" style="mix-blend-mode: multiply;isolation: isolate">
              <path id="Path_4050" data-name="Path 4050" d="M5135.036,376.869c.851,4.358,4.445,6.927,8.026,5.749s5.811-5.648,4.963-9.989c-.848-4.357-4.437-6.93-8.028-5.755S5134.192,372.52,5135.036,376.869Z" transform="translate(-5134.857 -366.591)" fill="#ffdebf"/>
            </g>
            <g id="Group_2663" data-name="Group 2663" transform="translate(0.85 0.649)">
              <path id="Path_4051" data-name="Path 4051" d="M5138.3,378.523c.769,3.99,4.044,6.338,7.317,5.257s5.308-5.185,4.54-9.161-4.042-6.344-7.319-5.265S5137.527,374.538,5138.3,378.523Z" transform="translate(-5138.134 -369.093)" fill="#fff"/>
              <g id="Group_2662" data-name="Group 2662" transform="translate(2.957 2.37)">
                <path id="Path_4052" data-name="Path 4052" d="M5154.07,388.5c-2.327.2-4.362-1.947-4.526-4.775s1.589-5.292,3.922-5.482,4.35,1.944,4.523,4.782C5158.154,385.848,5156.406,388.3,5154.07,388.5Z" transform="translate(-5149.534 -378.232)" fill="#883e28"/>
                <path id="Path_4053" data-name="Path 4053" d="M5160.029,392.5a2.742,2.742,0,0,1-2.681-2.827,2.908,2.908,0,0,1,2.323-3.25,2.735,2.735,0,0,1,2.68,2.836A2.892,2.892,0,0,1,5160.029,392.5Z" transform="translate(-5155.317 -384.292)" fill="#4d1700"/>
                <path id="Path_4054" data-name="Path 4054" d="M5154.786,393.364c-.593.128-1.128-.418-1.2-1.216a1.532,1.532,0,0,1,.975-1.677c.589-.127,1.133.423,1.2,1.218A1.542,1.542,0,0,1,5154.786,393.364Z" transform="translate(-5152.534 -387.283)" fill="#fff"/>
                <path id="Path_4055" data-name="Path 4055" d="M5161.2,401.122a4.905,4.905,0,0,0-2.664,3.786,3.593,3.593,0,0,0,2.2.548,3.645,3.645,0,0,0,1.161-.307A7.984,7.984,0,0,1,5161.2,401.122Z" transform="translate(-5156.199 -395.186)" fill="#883e28" opacity="0.48" style="mix-blend-mode: screen;isolation: isolate"/>
              </g>
            </g>
          </g>
          <g id="Group_2668" data-name="Group 2668" transform="translate(81.585 71.033)">
            <g id="Group_2665" data-name="Group 2665" opacity="0.75" style="mix-blend-mode: multiply;isolation: isolate">
              <path id="Path_4056" data-name="Path 4056" d="M5348.14,390c-1.351,4.144-5.274,6.239-8.763,4.691s-5.241-6.15-3.9-10.277c1.348-4.144,5.268-6.243,8.766-4.7S5349.481,385.86,5348.14,390Z" transform="translate(-5335.027 -379.205)" fill="#ffdebf"/>
            </g>
            <g id="Group_2667" data-name="Group 2667" transform="translate(0.33 0.606)">
              <path id="Path_4057" data-name="Path 4057" d="M5348.26,391.438c-1.227,3.8-4.8,5.712-7.991,4.292s-4.784-5.642-3.559-9.424,4.8-5.718,7.993-4.3S5349.487,387.646,5348.26,391.438Z" transform="translate(-5336.298 -381.54)" fill="#fff"/>
              <g id="Group_2666" data-name="Group 2666" transform="translate(1.699 2.257)">
                <path id="Path_4058" data-name="Path 4058" d="M5347.475,400.3c-2.368.188-4.443-1.916-4.615-4.687s1.6-5.18,3.979-5.361,4.431,1.913,4.613,4.693C5351.625,397.713,5349.851,400.109,5347.475,400.3Z" transform="translate(-5342.848 -390.244)" fill="#883e28"/>
                <path id="Path_4059" data-name="Path 4059" d="M5353.532,404.219a2.751,2.751,0,0,1-2.733-2.775,2.851,2.851,0,0,1,2.356-3.179,2.744,2.744,0,0,1,2.733,2.784A2.837,2.837,0,0,1,5353.532,404.219Z" transform="translate(-5348.732 -396.181)" fill="#4d1700"/>
                <path id="Path_4060" data-name="Path 4060" d="M5348.19,405.048c-.6.124-1.149-.411-1.22-1.194a1.491,1.491,0,0,1,.988-1.641c.6-.123,1.155.417,1.221,1.2A1.5,1.5,0,0,1,5348.19,405.048Z" transform="translate(-5345.897 -399.096)" fill="#fff"/>
                <path id="Path_4061" data-name="Path 4061" d="M5354.744,412.669a4.787,4.787,0,0,0-2.7,3.7,3.679,3.679,0,0,0,3.422.243A7.588,7.588,0,0,1,5354.744,412.669Z" transform="translate(-5349.658 -406.853)" fill="#883e28" opacity="0.48" style="mix-blend-mode: screen;isolation: isolate"/>
              </g>
            </g>
          </g>
          <g id="Group_2669" data-name="Group 2669" transform="translate(41.72 96.442)">
            <path id="Path_4062" data-name="Path 4062" d="M5193.342,509.641c2.685,4.581,7.665,9.069,16.88,9.265,8.741.186,13.836-3.356,16.79-7.221-.336-.179-.67-.344-1-.5C5215.55,506.437,5204.188,507.119,5193.342,509.641Z" transform="translate(-5190.224 -499.767)" fill="#ef5d80"/>
            <path id="Path_4063" data-name="Path 4063" d="M5181.318,477.177a24.163,24.163,0,0,0,3.119,9.874c10.846-2.523,22.208-3.2,32.672,1.547.327.152.662.317,1,.5a20.981,20.981,0,0,0,3.978-9.446Z" transform="translate(-5181.318 -477.177)" fill="#c32a48"/>
          </g>
          <path id="Path_4064" data-name="Path 4064" d="M5191.334,445.458c.35.153,13.652,1.437,17.7,5.92s3.65,7.252,3.65,7.252-16.09.552-25.584-.516c-9.553-.008-25.478-2.371-25.478-2.371s-.081-2.8,4.444-6.795,17.888-3.775,18.252-3.887Z" transform="translate(-5125.008 -356.949)" fill="#c9c4c7"/>
          <path id="Path_4065" data-name="Path 4065" d="M5173.492,471.579c.709.095,1.517.2,2.4.312.728-2.172,1.48-4.4,3.124-6.027A16.32,16.32,0,0,0,5173.492,471.579Z" transform="translate(-5133.801 -372.356)" fill="#e6e7e8"/>
          <path id="Path_4066" data-name="Path 4066" d="M5290.9,482.43c.721.025,1.445.045,2.167.062a15.8,15.8,0,0,0-2.141-5.32C5290.914,479.016,5290.905,480.616,5290.9,482.43Z" transform="translate(-5220.757 -380.732)" fill="#e6e7e8"/>
          <path id="Path_4067" data-name="Path 4067" d="M5320.244,468.669a29.046,29.046,0,0,1,2.919,7.579c.77-.006,1.5-.015,2.172-.024C5324.224,473.333,5322.867,470.563,5320.244,468.669Z" transform="translate(-5242.493 -374.434)" fill="#e6e7e8"/>
          <path id="Path_4068" data-name="Path 4068" d="M5229.291,476.89a11.394,11.394,0,0,0-2.295,4.382c.654.053,1.306.1,1.952.148A14.9,14.9,0,0,1,5229.291,476.89Z" transform="translate(-5173.429 -380.523)" fill="#e6e7e8"/>
          <path id="Path_4069" data-name="Path 4069" d="M5255.217,480.959c.411.008.814.013,1.2.014l.41.043a21.485,21.485,0,0,0-.746-5.091A15.879,15.879,0,0,0,5255.217,480.959Z" transform="translate(-5194.331 -379.807)" fill="#e6e7e8"/>
          <path id="Path_4070" data-name="Path 4070" d="M5196.474,477.179l.095.011v0q.706.081,1.439.161a16.648,16.648,0,0,1,1.67-4.926Q5198.077,474.8,5196.474,477.179Z" transform="translate(-5150.823 -377.216)" fill="#e6e7e8"/>
          <path id="Path_4071" data-name="Path 4071" d="M5062.381,221.929s-13.018,2.538-10.675,20.134,4.236,29.085,4.122,28.3,1.082-7.891,2.807-13.095,10.5-23.8,9.117-29.11C5066.183,222.144,5062.381,221.929,5062.381,221.929Z" transform="translate(-5043.391 -191.685)" fill="#e6e7e8"/>
          <path id="Path_4072" data-name="Path 4072" d="M5074.02,228.158c-1.567-6.014-5.37-6.229-5.37-6.229a11.357,11.357,0,0,0-2.333.823c-2.963,2.707-4.469,7.185-6.429,10.408,2.056-1.569,3.583-3.73,5.9-5-2.694,2.938-4.068,7.355-2.562,10.531,3.043,8.043,1.3,16.5-2.364,23.8.809,5.37,1.293,8.286,1.233,7.877-.114-.786,1.082-7.891,2.807-13.095S5075.4,233.466,5074.02,228.158Z" transform="translate(-5049.659 -191.685)" fill="#c9c4c7"/>
          <g id="Group_2670" data-name="Group 2670" transform="translate(97.835 25.397)">
            <path id="Path_4073" data-name="Path 4073" d="M5451.362,408.787c-.161.248-.251.374-.251.374C5451.2,409.147,5451.287,409.015,5451.362,408.787Z" transform="translate(-5437.255 -355.479)" fill="#b4b0aa"/>
            <path id="Path_4074" data-name="Path 4074" d="M5413.781,204.411c-8.045-3.911-16.1,3.222-16.1,3.222a11.114,11.114,0,0,1,1.872,1.137c1.674,2.021,1.5,5.054,1.4,7.727a36.393,36.393,0,0,0,1.012,10.319c1.313,5.091,3.968,9.732,6.232,14.492,1.967,4.135,3.676,8.538,3.892,13.058a10.163,10.163,0,0,1-.306,2.182c.084-.13.188-.292.31-.49,0,.122,0,.244-.012.366.053-.2.1-.4.157-.6a67.824,67.824,0,0,0,5.809-13C5421.3,233.3,5421.826,208.323,5413.781,204.411Z" transform="translate(-5397.684 -203.239)" fill="#e6e7e8"/>
            <path id="Path_4075" data-name="Path 4075" d="M5405.173,225.073c2.256-.153,4.713,1.109,7,.4-2.425-1.823-4.539-4.19-7.883-4.66a8.465,8.465,0,0,1,9.738,1.674c-2.792-5.135-9.227-9.477-14.883-7.712a16.159,16.159,0,0,0-1.461,1.107,11.113,11.113,0,0,1,1.872,1.137c1.674,2.021,1.5,5.054,1.4,7.727a36.357,36.357,0,0,0,1.012,10.319c1.313,5.091,3.968,9.732,6.232,14.492,1.967,4.135,3.676,8.538,3.892,13.058a10.163,10.163,0,0,1-.306,2.182c.084-.13.188-.292.31-.49,0,.122,0,.244-.012.366.053-.2.1-.4.157-.6a57.154,57.154,0,0,0,3.532-7.044c-2.942-4.464-6.568-8.5-7.7-13.8C5406.453,237.226,5410.536,229.591,5405.173,225.073Z" transform="translate(-5397.684 -211.484)" fill="#c9c4c7"/>
          </g>
          <path id="Path_4076" data-name="Path 4076" d="M5224.655,429.59a6.685,6.685,0,0,0-3.067,2.306,3.75,3.75,0,0,0-.391,3.677,5.44,5.44,0,0,0,3.043,2.323,22.4,22.4,0,0,0,11.68,1.3c2.29-.356,4.811-1.318,5.621-3.468a5.516,5.516,0,0,0-1.308-5.266Z" transform="translate(-5168.897 -345.49)" fill="#fddcbe"/>
          <path id="Path_4077" data-name="Path 4077" d="M5251.937,442.283a5.517,5.517,0,0,1-4.157,4.271c-2.246.269-4.2-1.985-5.886-.871a11.313,11.313,0,0,1-7.009,1.716,22.415,22.415,0,0,0,11.41,1.2c2.29-.356,4.81-1.318,5.62-3.468A4.4,4.4,0,0,0,5251.937,442.283Z" transform="translate(-5179.271 -354.891)" fill="#fddcbe" opacity="0.89" style="mix-blend-mode: multiply;isolation: isolate"/>
          <path id="Path_4078" data-name="Path 4078" d="M5115.714,121.909s-6.612,1.886-10.139,6.739c0,0,24.381-12.77,52.022,1.688a37.359,37.359,0,0,1,6.141,5.057c2.3,2.32,10.842-4.255,10.328-9.583-.8-8.309-26.083-22.543-49.241-20.248-25.981,2.575-39.078,16.633-42.349,36.138,0,0-1.328,16.277-1.169,15.887s7.27-20.727,18.79-27.919S5115.714,121.909,5115.714,121.909Z" transform="translate(-5065.515 -105.315)" fill="#e6e7e8"/>
          <path id="Path_4079" data-name="Path 4079" d="M5409.946,179.973a10.069,10.069,0,0,0-.1,2.136A7.131,7.131,0,0,0,5409.946,179.973Z" transform="translate(-5308.851 -160.611)" fill="#c9c4c7"/>
          <path id="Path_4080" data-name="Path 4080" d="M5174.067,150.859a6.528,6.528,0,0,0-.911-2.579,12.9,12.9,0,0,1-7.5,8.416c1.057-1.495.915-3.192.861-4.833-.234,1.142-.795,2.135-1.839,2.249-4.528.587-7.4-3.228-10.948-5.114a45.782,45.782,0,0,0-32.093-3.781c4.327-2,8.374-4.021,13.167-4.312-5.273-1.141-10.657-.322-15.793,1.073,1.463-1.041,2.911-1.8,4.375-2.843-20.986,1.3-36.916,18.557-41.758,38.415-.219,2.912-.378,5.235-.318,5.085.158-.39,7.271-20.727,18.79-27.919s15.617-7.758,15.617-7.758-6.612,1.886-10.139,6.739c0,0,24.381-12.77,52.023,1.688a37.382,37.382,0,0,1,6.141,5.057C5166.035,162.762,5174.581,156.187,5174.067,150.859Z" transform="translate(-5065.515 -130.364)" fill="#c9c4c7"/>
        </g>
        <g id="Group_2675" data-name="Group 2675" transform="translate(39.086 34.585)">
          <g id="Group_2672" data-name="Group 2672" transform="translate(0.442)" opacity="0.89" style="mix-blend-mode: multiply;isolation: isolate">
            <path id="Path_4081" data-name="Path 4081" d="M5173.164,240.921c1.624-.9,3.717-.867,5.525-.784a51.965,51.965,0,0,0,5.307-.04,86.9,86.9,0,0,1,12.289.311c8.246.7,16.634.727,24.74,2.549a.209.209,0,0,0,.134-.4c-8.127-2.96-16.8-2.8-25.3-3.549a75.8,75.8,0,0,0-12.74-.136c-3.486.276-7.017-.162-10.147,1.667-.235.137-.047.512.193.379Z" transform="translate(-5172.862 -238.668)" fill="#fddcbe"/>
          </g>
          <g id="Group_2673" data-name="Group 2673" transform="translate(0 4.756)" opacity="0.89" style="mix-blend-mode: multiply;isolation: isolate">
            <path id="Path_4082" data-name="Path 4082" d="M5171.459,259.259c1.624-.9,3.717-.867,5.525-.784a51.9,51.9,0,0,0,5.308-.04,86.905,86.905,0,0,1,12.289.311c8.245.7,16.633.728,24.739,2.549a.209.209,0,0,0,.134-.4c-8.127-2.961-16.8-2.8-25.3-3.549a75.805,75.805,0,0,0-12.74-.136c-3.485.275-7.017-.162-10.146,1.667-.234.137-.047.512.193.379Z" transform="translate(-5171.159 -257.007)" fill="#fddcbe"/>
          </g>
          <g id="Group_2674" data-name="Group 2674" transform="translate(6.014 10.493)" opacity="0.89" style="mix-blend-mode: multiply;isolation: isolate">
            <path id="Path_4083" data-name="Path 4083" d="M5194.651,281.009a7.987,7.987,0,0,1,4.1-.482,37.02,37.02,0,0,0,3.993-.013,67.275,67.275,0,0,1,9.1.26c6.013.5,12.113.558,18.045,1.738a.209.209,0,0,0,.135-.4c-5.956-2.311-12.329-2.187-18.6-2.737a55.813,55.813,0,0,0-9.47-.1c-2.64.214-5.138-.009-7.5,1.346-.236.135-.049.508.194.379Z" transform="translate(-5194.348 -279.126)" fill="#fddcbe"/>
          </g>
        </g>
      </g>
      <g id="Group_2685" data-name="Group 2685" transform="translate(8.891 61.179)">
        <g id="Group_2684" data-name="Group 2684" transform="translate(2.934)">
          <g id="Group_2679" data-name="Group 2679" transform="translate(56.384 3.495)">
            <g id="Group_2677" data-name="Group 2677">
              <path id="Path_4084" data-name="Path 4084" d="M5285.17,362.336a1.874,1.874,0,0,1-1.59-1.4,2.485,2.485,0,0,1,1.032-2.943,37.215,37.215,0,0,1,11.653-3c6.574-.734,16.978-.468,29.205,4.97a2.409,2.409,0,0,1,1.077,2.888,1.778,1.778,0,0,1-2.354,1.362c-22.149-9.851-38.079-2.114-38.237-2.035A1.53,1.53,0,0,1,5285.17,362.336Z" transform="translate(-5283.453 -354.688)" fill="#231f20"/>
            </g>
            <g id="Group_2678" data-name="Group 2678" transform="translate(1.721 4.932)">
              <path id="Path_4085" data-name="Path 4085" d="M5314.446,396.038q-.655-.041-1.358-.094a137.346,137.346,0,0,1-14.427-1.851c-2.464-.507-4.589-3.8-6.5-10.053a76.957,76.957,0,0,1-2.052-8.638,1.44,1.44,0,0,1,.88-1.664,1.144,1.144,0,0,1,1.34,1.065c1.023,6.067,3.755,15.92,6.729,16.532a137.733,137.733,0,0,0,14.085,1.811c10.085.771,11.529-.423,11.661-.561,1.5-1.77,3.677-10.907,4.7-16.249a1.165,1.165,0,0,1,1.363-1.059,1.415,1.415,0,0,1,.843,1.668c-.285,1.5-2.861,14.72-5.348,17.652C5325.824,395.23,5324.6,396.677,5314.446,396.038Z" transform="translate(-5290.088 -373.705)" fill="#231f20"/>
            </g>
          </g>
          <g id="Group_2682" data-name="Group 2682">
            <g id="Group_2680" data-name="Group 2680" transform="translate(0.204)">
              <path id="Path_4086" data-name="Path 4086" d="M5108.044,351.3a1.816,1.816,0,0,0,1.721-1.194,2.526,2.526,0,0,0-.726-3.054,38.044,38.044,0,0,0-11.274-4.448,56.022,56.022,0,0,0-29.523,1.274,2.354,2.354,0,0,0-1.363,2.734,1.824,1.824,0,0,0,2.2,1.648c23.007-7.009,38.049,2.678,38.2,2.777A1.551,1.551,0,0,0,5108.044,351.3Z" transform="translate(-5066.83 -341.21)" fill="#231f20"/>
            </g>
            <g id="Group_2681" data-name="Group 2681" transform="translate(0 3.828)">
              <path id="Path_4087" data-name="Path 4087" d="M5081.269,378.671q.653.041,1.358.077a136.716,136.716,0,0,0,14.523-.029c2.5-.195,4.944-3.2,7.475-9.173a75.569,75.569,0,0,0,2.914-8.325,1.475,1.475,0,0,0-.705-1.764,1.114,1.114,0,0,0-1.439.89c-1.632,5.9-5.345,15.348-8.362,15.582a136.915,136.915,0,0,1-14.179.031c-10.1-.5-11.413-1.867-11.53-2.021-1.312-1.947-2.547-11.3-3.018-16.735a1.2,1.2,0,0,0-1.248-1.224,1.378,1.378,0,0,0-1.007,1.552c.132,1.524,1.352,14.985,3.524,18.211C5070.045,376.44,5071.118,378.032,5081.269,378.671Z" transform="translate(-5066.045 -355.971)" fill="#231f20"/>
            </g>
          </g>
          <g id="Group_2683" data-name="Group 2683" transform="translate(39.889 6.996)">
            <path id="Path_4088" data-name="Path 4088" d="M5239.576,375.966a27.825,27.825,0,0,0-19.614-1.234l-.113-4.826c.336-.183,8.373-4.409,20.283,1.109Z" transform="translate(-5219.848 -368.187)" fill="#231f20"/>
          </g>
        </g>
        <path id="Path_4089" data-name="Path 4089" d="M5058.5,358.77l-3.055-.3a.962.962,0,0,1-.708-1.045l.006-2.842a1.008,1.008,0,0,1,.759-1.09l3.149-.231c.454-.033.824.466.806,1.086l-.1,3.373C5059.334,358.335,5058.943,358.814,5058.5,358.77Z" transform="translate(-5054.732 -350.136)" fill="#231f20"/>
        <path id="Path_4090" data-name="Path 4090" d="M5444.023,382.505l2.9.075c.382.01.715-.4.77-.952l.274-2.825a1.039,1.039,0,0,0-.605-1.176l-2.938-.614c-.423-.088-.82.363-.864.981l-.238,3.365C5443.278,381.971,5443.6,382.494,5444.023,382.505Z" transform="translate(-5342.539 -367.72)" fill="#231f20"/>
      </g>
    </g>
    <path id="Path_4091" data-name="Path 4091" d="M5609.358,682.157a29.106,29.106,0,0,1-15.625-8.518,82.527,82.527,0,0,1,9.924-3.474h19.025a82.984,82.984,0,0,1,9.694,3.294C5627.368,680.59,5618.363,683.7,5609.358,682.157Z" transform="translate(-624.361 -776.518)" fill="#fddcbe"/>
    <path id="Path_4092" data-name="Path 4092" d="M5596.806,673.325a75.967,75.967,0,0,1,9.127-3.161h19.025a41.972,41.972,0,0,1,5.166,1.623C5622.253,682.5,5608.736,676.81,5596.806,673.325Z" transform="translate(-626.637 -776.518)" fill="#fddcbe" opacity="0.89" style="mix-blend-mode: multiply;isolation: isolate"/>
    <path id="Path_4093" data-name="Path 4093" d="M5578.821,702.038c-5.631-4.548-4.339-11.074-2.271-17.2,1.081-.452,2.138-.882,3.15-1.283a29.1,29.1,0,0,0,15.624,8.519,26.633,26.633,0,0,0,4.225.376,15.986,15.986,0,0,1-3.94,8.16A12.084,12.084,0,0,1,5578.821,702.038Z" transform="translate(-610.328 -786.439)" fill="#fff"/>
    <path id="Path_4094" data-name="Path 4094" d="M5694.208,698.677c-5.406,7.967-17.357,5.122-20.771-2.845a25.28,25.28,0,0,1-1.255-3.885c7.323-.058,14.168-3.2,18.3-9.082.776.3,1.581.614,2.4.942C5694.878,688.634,5697.432,693.842,5694.208,698.677Z" transform="translate(-682.464 -785.924)" fill="#fff"/>
    <path id="Path_4095" data-name="Path 4095" d="M5661.657,764.763a2.277,2.277,0,1,0,2.277-2.276A2.276,2.276,0,0,0,5661.657,764.763Z" transform="translate(-674.669 -844.897)" fill="#fff"/>
    <g id="Group_2715" data-name="Group 2715" transform="translate(4933.506 -243.405)">
      <path id="Path_4096" data-name="Path 4096" d="M5681.224,176.344c-2.678,13.635-19.252,21.844-37.02,18.335s-30-17.407-27.323-31.042,20.03-24.775,37.8-21.266S5683.9,162.709,5681.224,176.344Z" transform="translate(-5574.74 -141.717)" fill="#d1d3d4"/>
      <path id="Path_4097" data-name="Path 4097" d="M5494.072,256.869s-.728-25.406,1.966-43.268,24.046-42.944,66.719-35.913c43.4,7.149,41.882,47.993,41.76,52.927-.306,12.34-9.4,44.442-11.651,43.835C5590.583,273.834,5494.072,256.869,5494.072,256.869Z" transform="translate(-5483.986 -167.461)" fill="#d1d3d4"/>
      <g id="Group_2687" data-name="Group 2687" transform="translate(0 77.976)">
        <path id="Path_4098" data-name="Path 4098" d="M5476.092,458.069c-1.32,7.615-3.793,12.809-9.45,11.823s-12.354-7.777-11.033-15.391,6.977-12.989,12.634-12S5477.414,450.454,5476.092,458.069Z" transform="translate(-5455.441 -442.381)" fill="#fddcbe"/>
        <path id="Path_4099" data-name="Path 4099" d="M5478.905,459.942c-1.446-1.269-3.974-1.026-5.768.173a10.072,10.072,0,0,0-2.4,5.272c1.783-1.8,4.838-4.757,6.6-1.944a8.179,8.179,0,0,1,1.1,2.24,4.867,4.867,0,0,0-4.315.393c-1.942,1.466-1.75,3.98-.8,5.955.531-1.436.814-2.963,2.156-3.561a1.289,1.289,0,0,1,1.639.868c-.019.808-1.359,1.406-1.378,2.214.07.569.052,1.377.792,1.646a4.255,4.255,0,0,0,1.482.561c-.449,1.7-.969,3.371-1.276,4.945C5483.053,474.486,5484.35,464.911,5478.905,459.942Z" transform="translate(-5466.768 -454.761)" fill="#fddcbe" opacity="0.89" style="mix-blend-mode: multiply;isolation: isolate"/>
      </g>
      <g id="Group_2688" data-name="Group 2688" transform="translate(99.468 94.819)">
        <path id="Path_4100" data-name="Path 4100" d="M5839.5,519.562c-1.239,7.629-.6,13.348,5.068,14.274s14.212-3.292,15.451-10.921-2.351-14.564-8.018-15.49S5840.739,511.933,5839.5,519.562Z" transform="translate(-5838.97 -507.323)" fill="#fddcbe"/>
        <path id="Path_4101" data-name="Path 4101" d="M5866.451,526.352c1.78-.724,4.09.335,5.393,2.057a10.082,10.082,0,0,1,.55,5.77c-1.1-2.282-3.018-6.083-5.6-4a8.152,8.152,0,0,0-1.773,1.755,4.874,4.874,0,0,1,3.949,1.788c1.355,2.023.354,4.335-1.189,5.89-.031-1.531.2-3.067-.873-4.072a1.287,1.287,0,0,0-1.832.282c-.246.77.825,1.775.578,2.544-.252.514-.5,1.284-1.285,1.3a4.252,4.252,0,0,1-1.583.044c-.132,1.754-.186,3.5-.409,5.092C5857.783,538.733,5859.684,529.259,5866.451,526.352Z" transform="translate(-5854.444 -521.246)" fill="#fddcbe" opacity="0.89" style="mix-blend-mode: multiply;isolation: isolate"/>
      </g>
      <path id="Path_4102" data-name="Path 4102" d="M5599.916,319.54c5.531-28.824-3.323-57.889-38.419-63.813-34.212-5.775-51.98,18.8-57.728,47.583-8.008,40.1,5.085,55.2,25.7,60.215,2.781,2.815,7.315,5.075,12.662,5.978,5.9,1,11.408.1,14.973-2.072C5579.634,368.667,5591.479,363.508,5599.916,319.54Z" transform="translate(-5489.471 -225.531)" fill="#fddcbe"/>
      <path id="Path_4103" data-name="Path 4103" d="M5575.2,255.727c-30.348-5.123-47.755,13.64-55.312,38.032,9.58-7.035,22.416-9.249,33.991-11.765,11.924-2.668,24.194-3.453,36.2-3.939-1.276,9.572,5.146,18.649,11.042,25.765,4.078,5.237,10.02,8.963,12.6,15.158C5619.029,290.339,5610.066,261.613,5575.2,255.727Z" transform="translate(-5503.171 -225.531)" fill="#fddcbe" opacity="0.89" style="mix-blend-mode: multiply;isolation: isolate"/>
      <g id="Group_2692" data-name="Group 2692" transform="translate(15.542 80.67)">
        <g id="Group_2689" data-name="Group 2689" transform="translate(1.326)" opacity="0.89" style="mix-blend-mode: multiply;isolation: isolate">
          <path id="Path_4104" data-name="Path 4104" d="M5520.863,453.377c2.881.036,5.256,1.327,7.953,1.928.2.045.351-.1.224-.224-1.633-1.654-5.551-2.3-8.116-2.313-.542,0-.615.6-.061.609Z" transform="translate(-5520.48 -452.768)" fill="#fddcbe"/>
        </g>
        <g id="Group_2690" data-name="Group 2690" transform="translate(0 3.675)" opacity="0.89" style="mix-blend-mode: multiply;isolation: isolate">
          <path id="Path_4105" data-name="Path 4105" d="M5515.863,467.778a32.757,32.757,0,0,1,4.943.222,19.621,19.621,0,0,0,4.475.234c.3-.039.319-.317.041-.414a20.043,20.043,0,0,0-4.877-.783,17.237,17.237,0,0,0-4.751.132c-.513.1-.393.639.169.609Z" transform="translate(-5515.368 -466.937)" fill="#fddcbe"/>
        </g>
        <g id="Group_2691" data-name="Group 2691" transform="translate(2 6.659)" opacity="0.89" style="mix-blend-mode: multiply;isolation: isolate">
          <path id="Path_4106" data-name="Path 4106" d="M5523.76,479.774a23.028,23.028,0,0,1,3.55-.346,12.672,12.672,0,0,0,3.207-.3c.372-.109.223-.483-.147-.539a21.213,21.213,0,0,0-6.979.4c-.606.122-.251.9.368.787Z" transform="translate(-5523.079 -478.442)" fill="#fddcbe"/>
        </g>
      </g>
      <g id="Group_2696" data-name="Group 2696" transform="translate(94.787 94.472)">
        <g id="Group_2693" data-name="Group 2693" transform="translate(0.966)" opacity="0.89" style="mix-blend-mode: multiply;isolation: isolate">
          <path id="Path_4107" data-name="Path 4107" d="M5832.06,507.186c-2.444-.7-4.78-.209-7.212-.383-.181-.013-.272-.169-.132-.245,1.8-.982,5.277-.54,7.447.1.459.135.367.663-.1.529Z" transform="translate(-5824.647 -505.983)" fill="#fddcbe"/>
        </g>
        <g id="Group_2694" data-name="Group 2694" transform="translate(0.179 2.443)" opacity="0.89" style="mix-blend-mode: multiply;isolation: isolate">
          <path id="Path_4108" data-name="Path 4108" d="M5829.845,517.766a28.957,28.957,0,0,0-4.234-1.062,17.3,17.3,0,0,1-3.841-.933c-.24-.108-.19-.348.07-.36a17.716,17.716,0,0,1,4.321.572,15.205,15.205,0,0,1,3.982,1.312c.408.212.169.638-.3.471Z" transform="translate(-5821.615 -515.404)" fill="#fddcbe"/>
        </g>
        <g id="Group_2695" data-name="Group 2695" transform="translate(0 4.507)" opacity="0.89" style="mix-blend-mode: multiply;isolation: isolate">
          <path id="Path_4109" data-name="Path 4109" d="M5826.6,526.038a20.353,20.353,0,0,0-2.912-1.189,11.17,11.17,0,0,1-2.634-1.065c-.286-.186-.066-.463.261-.418a18.723,18.723,0,0,1,5.8,2.1c.482.257-.017.824-.511.571Z" transform="translate(-5820.923 -523.362)" fill="#fddcbe"/>
        </g>
      </g>
      <path id="Path_4110" data-name="Path 4110" d="M5573.724,509.585c1.767,3.113,4.938,5.214,8.393,4.5,2.48-.559,4.159-2.447,5.438-4.61C5583.943,512.952,5577.8,512.074,5573.724,509.585Z" transform="translate(-5543.047 -414.098)" fill="#fddcbe" opacity="0.89" style="mix-blend-mode: multiply;isolation: isolate"/>
      <path id="Path_4111" data-name="Path 4111" d="M5749.392,519.162c-.567,2.45,1.031,5.617,3.871,7.643a12.078,12.078,0,0,0,11.511,1.151C5759.322,527.053,5750.81,524.291,5749.392,519.162Z" transform="translate(-5673.072 -421.272)" fill="#fddcbe" opacity="0.89" style="mix-blend-mode: multiply;isolation: isolate"/>
      <path id="Path_4112" data-name="Path 4112" d="M5645.758,635.535a9.173,9.173,0,0,0,5.142,4.52c3.928,1.342,7.653-.405,10.851-2.241C5656.488,638.839,5650.237,639.1,5645.758,635.535Z" transform="translate(-5596.399 -507.464)" fill="#fddcbe" opacity="0.89" style="mix-blend-mode: multiply;isolation: isolate"/>
      <path id="Path_4113" data-name="Path 4113" d="M5707.9,468.94c-2.592,5.451,1.613,10.367,4.232,14.735-1.347-6.228-2.588-13.054.042-18.964A11.941,11.941,0,0,0,5707.9,468.94Z" transform="translate(-5641.821 -380.944)" fill="#fddcbe" opacity="0.89" style="mix-blend-mode: multiply;isolation: isolate"/>
      <g id="Group_2697" data-name="Group 2697" transform="translate(25.089 62.072)">
        <path id="Path_4114" data-name="Path 4114" d="M5556.618,391.955c4.312-6.367,10.671-5.735,16.219-2.776,1.2.64,2.729-.349,3.192-1.776a3.137,3.137,0,0,0-1.386-3.775,18.807,18.807,0,0,0-11.509-2.418c-4.208.608-7.812,3.455-10.474,7.387a3.347,3.347,0,0,0,.519,4.1c1.123.953,2.588.512,3.439-.746Z" transform="translate(-5552.18 -381.055)" fill="#d1d3d4"/>
      </g>
      <g id="Group_2698" data-name="Group 2698" transform="translate(79.713 70.74)">
        <path id="Path_4115" data-name="Path 4115" d="M5778.641,427.518c-1.807-6.726-7.674-8.306-13.563-7.681a2.333,2.333,0,0,1-2.275-2.534,2.746,2.746,0,0,1,2.44-2.682,18.974,18.974,0,0,1,11.026,1.8c3.556,1.9,5.855,5.462,6.971,9.615a2.858,2.858,0,0,1-1.773,3.243,2.23,2.23,0,0,1-2.826-1.759Z" transform="translate(-5762.801 -414.477)" fill="#d1d3d4"/>
      </g>
      <g id="Group_2699" data-name="Group 2699" transform="translate(25.092 62.072)">
        <path id="Path_4116" data-name="Path 4116" d="M5600.289,384.334a.738.738,0,0,0-.2.045C5600.153,384.361,5600.22,384.35,5600.289,384.334Z" transform="translate(-5587.663 -383.484)" fill="#e6e7e8"/>
        <path id="Path_4117" data-name="Path 4117" d="M5574.651,383.628a18.808,18.808,0,0,0-11.509-2.418c-4.209.608-7.812,3.455-10.475,7.386a3.021,3.021,0,0,0-.477,1.747,12.692,12.692,0,0,1,9.093-6,7.6,7.6,0,0,0-2.5-.011c2.106-1.425,4.844-1.107,7.16-1.952-.478-.056-.7-.505-1.132-.478-.069.016-.136.027-.2.045a.738.738,0,0,1,.2-.045c3.638-.854,7,.638,9.732,2.869a3.444,3.444,0,0,1,1.462,2.7c.008-.024.018-.046.026-.07A3.136,3.136,0,0,0,5574.651,383.628Z" transform="translate(-5552.19 -381.056)" fill="#e6e7e8"/>
      </g>
      <g id="Group_2700" data-name="Group 2700" transform="translate(79.757 70.74)">
        <path id="Path_4118" data-name="Path 4118" d="M5783.365,426.033c-1.115-4.153-3.416-7.715-6.971-9.615a18.975,18.975,0,0,0-11.026-1.8,2.734,2.734,0,0,0-2.4,2.284,7.6,7.6,0,0,1,5.032-1.645c-.579.211-.916.729-1.5.94,4.391-2,8.21.954,11.852,3.047.032-.275-.484-.613-.452-.888,1.725,1.871,2.534,4.47,3.681,6.552a3.938,3.938,0,0,1-.357-1.712c.571,1.578,1.533,3.074,1.917,4.635A2.6,2.6,0,0,0,5783.365,426.033Z" transform="translate(-5762.97 -414.477)" fill="#e6e7e8"/>
      </g>
      <g id="Group_2704" data-name="Group 2704" transform="translate(30.58 79.054)">
        <g id="Group_2701" data-name="Group 2701" opacity="0.75" style="mix-blend-mode: multiply;isolation: isolate">
          <path id="Path_4119" data-name="Path 4119" d="M5573.384,455.914c.358,4.362,3.59,7.27,7.213,6.5s6.286-4.905,5.928-9.25c-.356-4.361-3.583-7.272-7.215-6.509S5573.03,451.561,5573.384,455.914Z" transform="translate(-5573.352 -446.537)" fill="#ffdebf"/>
        </g>
        <g id="Group_2703" data-name="Group 2703" transform="translate(0.839 0.667)">
          <path id="Path_4120" data-name="Path 4120" d="M5576.614,457.714c.319,3.993,3.263,6.649,6.574,5.945s5.744-4.505,5.424-8.484-3.26-6.655-6.576-5.952S5576.293,453.725,5576.614,457.714Z" transform="translate(-5576.586 -449.109)" fill="#fff"/>
          <g id="Group_2702" data-name="Group 2702" transform="translate(2.928 2.427)">
            <path id="Path_4121" data-name="Path 4121" d="M5591.786,468.586c-2.294-.059-4.049-2.381-3.9-5.17s2.124-5.013,4.424-4.947,4.036,2.376,3.9,5.176C5596.061,466.427,5594.088,468.639,5591.786,468.586Z" transform="translate(-5587.875 -458.467)" fill="#883e28"/>
            <path id="Path_4122" data-name="Path 4122" d="M5597.863,472.636a2.7,2.7,0,0,1-2.312-3.061,2.864,2.864,0,0,1,2.62-2.933,2.694,2.694,0,0,1,2.31,3.07A2.849,2.849,0,0,1,5597.863,472.636Z" transform="translate(-5593.558 -464.522)" fill="#4d1700"/>
            <path id="Path_4123" data-name="Path 4123" d="M5593.14,472.518c-.593.061-1.057-.531-1.036-1.321a1.511,1.511,0,0,1,1.134-1.538c.588-.06,1.06.538,1.036,1.324A1.52,1.52,0,0,1,5593.14,472.518Z" transform="translate(-5591.006 -466.754)" fill="#fff"/>
            <path id="Path_4124" data-name="Path 4124" d="M5597.9,481.3a4.836,4.836,0,0,0-3.011,3.421,3.523,3.523,0,0,0,2.092.776,3.564,3.564,0,0,0,1.166-.176A7.907,7.907,0,0,1,5597.9,481.3Z" transform="translate(-5593.07 -475.376)" fill="#883e28" opacity="0.48" style="mix-blend-mode: screen;isolation: isolate"/>
          </g>
        </g>
      </g>
      <g id="Group_2708" data-name="Group 2708" transform="translate(79.685 87.629)">
        <g id="Group_2705" data-name="Group 2705" opacity="0.75" style="mix-blend-mode: multiply;isolation: isolate">
          <path id="Path_4125" data-name="Path 4125" d="M5775.256,490.888c-1.768,3.914-5.825,5.542-9.064,3.646s-4.452-6.594-2.69-10.493c1.764-3.914,5.819-5.547,9.067-3.651S5777.014,486.98,5775.256,490.888Z" transform="translate(-5762.69 -479.601)" fill="#ffdebf"/>
        </g>
        <g id="Group_2707" data-name="Group 2707" transform="translate(0.335 0.566)">
          <path id="Path_4126" data-name="Path 4126" d="M5775.443,492.134c-1.608,3.586-5.308,5.076-8.267,3.34s-4.06-6.047-2.455-9.62,5.308-5.083,8.271-3.346S5777.052,488.552,5775.443,492.134Z" transform="translate(-5763.983 -481.784)" fill="#fff"/>
          <g id="Group_2706" data-name="Group 2706" transform="translate(1.689 2.193)">
            <path id="Path_4127" data-name="Path 4127" d="M5774.5,500.157c-2.332-.073-4.13-2.36-4-5.093s2.128-4.9,4.465-4.822,4.119,2.355,4,5.1C5778.832,498.067,5776.841,500.224,5774.5,500.157Z" transform="translate(-5770.495 -490.24)" fill="#883e28"/>
            <path id="Path_4128" data-name="Path 4128" d="M5780.665,504.135a2.708,2.708,0,0,1-2.368-3.015,2.807,2.807,0,0,1,2.645-2.859,2.7,2.7,0,0,1,2.367,3.024A2.793,2.793,0,0,1,5780.665,504.135Z" transform="translate(-5776.271 -496.18)" fill="#4d1700"/>
            <path id="Path_4129" data-name="Path 4129" d="M5775.835,503.966c-.6.056-1.077-.528-1.061-1.3a1.468,1.468,0,0,1,1.142-1.5c.6-.055,1.082.534,1.061,1.3A1.477,1.477,0,0,1,5775.835,503.966Z" transform="translate(-5773.665 -498.327)" fill="#fff"/>
            <path id="Path_4130" data-name="Path 4130" d="M5780.762,512.634a4.715,4.715,0,0,0-3.039,3.335,3.7,3.7,0,0,0,2.13.774,3.744,3.744,0,0,0,1.185-.165A7.5,7.5,0,0,1,5780.762,512.634Z" transform="translate(-5775.849 -506.826)" fill="#883e28" opacity="0.48" style="mix-blend-mode: screen;isolation: isolate"/>
          </g>
        </g>
      </g>
      <g id="Group_2709" data-name="Group 2709" transform="translate(40.34 109.891)">
        <path id="Path_4131" data-name="Path 4131" d="M5618.121,595.812c2.256,4,6.755,8.2,15.723,9.453,8.505,1.184,13.751-1.064,16.936-3.826-.313-.184-.627-.356-.933-.517C5640.021,595.86,5628.892,595.065,5618.121,595.812Z" transform="translate(-5616.27 -587.756)" fill="#ef5d80"/>
        <path id="Path_4132" data-name="Path 4132" d="M5611.068,569.012a17.8,17.8,0,0,0,1.767,4.483c10.771-.747,21.9.048,31.726,5.11.306.161.62.333.933.517a15.466,15.466,0,0,0,2.808-3.218,3.248,3.248,0,0,0-1.956-4.908,199.5,199.5,0,0,0-32.2-5.546A2.9,2.9,0,0,0,5611.068,569.012Z" transform="translate(-5610.983 -565.439)" fill="#c32a48"/>
      </g>
      <path id="Path_4133" data-name="Path 4133" d="M5653.54,515.835a6.563,6.563,0,0,0-3.243,1.927,3.708,3.708,0,0,0-.78,3.56,5.354,5.354,0,0,0,2.72,2.606,21.935,21.935,0,0,0,11.264,2.539c2.274-.1,4.839-.77,5.863-2.789a5.449,5.449,0,0,0-.707-5.3Z" transform="translate(-5599.05 -418.808)" fill="#fddcbe"/>
      <path id="Path_4134" data-name="Path 4134" d="M5678.695,535.338a5.426,5.426,0,0,1-4.521,3.735c-2.222.02-3.883-2.4-5.653-1.492a11.076,11.076,0,0,1-7.029.922,21.951,21.951,0,0,0,11.012,2.409c2.274-.1,4.838-.77,5.863-2.789A4.349,4.349,0,0,0,5678.695,535.338Z" transform="translate(-5608.052 -433.253)" fill="#fddcbe" opacity="0.89" style="mix-blend-mode: multiply;isolation: isolate"/>
      <path id="Path_4135" data-name="Path 4135" d="M5779.78,482.33a3.318,3.318,0,0,1-1.871.368c-.074,0-.15,0-.228,0a6.662,6.662,0,0,0-.309-.9l.056-.01a3.371,3.371,0,0,0,1.787-1.079c.1-.107-.088-.265-.206-.172a3.316,3.316,0,0,1-1.871.368c-.076,0-.156,0-.237,0a6.179,6.179,0,0,0-4.026-2.753c-3.162-.682-7,2.031-8.072,4.495-.117.27.35.43.476.167a6.233,6.233,0,0,1,7.673-3.064c2.783,1.073,3.044,3.27,3.969,5.516a.527.527,0,0,0,.964-.133,6.993,6.993,0,0,0-.023-1.492c.123-.014.238-.033.338-.053a3.372,3.372,0,0,0,1.786-1.079C5780.089,482.4,5779.9,482.237,5779.78,482.33Z" transform="translate(-5684.557 -390.815)" fill="#917f70"/>
      <path id="Path_4136" data-name="Path 4136" d="M5569.751,446.561a3.165,3.165,0,0,0,1.7.707c.07.016.143.029.217.041a6.494,6.494,0,0,1,.461-.8l-.051-.02a3.253,3.253,0,0,1-1.482-1.37c-.076-.122.134-.237.227-.126a3.17,3.17,0,0,0,1.7.706c.072.017.147.03.224.042a5.931,5.931,0,0,1,4.324-1.868c3.114-.053,6.226,3.27,6.769,5.827.059.28-.411.345-.481.069a5.986,5.986,0,0,0-6.663-4.384c-2.831.5-3.495,2.548-4.792,4.519a.507.507,0,0,1-.887-.31,6.925,6.925,0,0,1,.306-1.422c-.113-.037-.219-.077-.309-.115a3.25,3.25,0,0,1-1.482-1.37C5569.448,446.565,5569.658,446.45,5569.751,446.561Z" transform="translate(-5539.924 -365.508)" fill="#917f70"/>
      <g id="Group_2710" data-name="Group 2710" transform="translate(48.675 58.747)" style="mix-blend-mode: multiply;isolation: isolate">
        <path id="Path_4137" data-name="Path 4137" d="M5643.3,368.623a142.783,142.783,0,0,1,18.6,2.21c6.027,1.092,11.782,2.982,17.713,4.436.217.053.412-.269.181-.378-5.419-2.551-11.612-3.771-17.483-4.812a140.877,140.877,0,0,0-19-1.845.2.2,0,0,0-.015.389Z" transform="translate(-5643.121 -368.234)" fill="#fddcbe"/>
      </g>
      <g id="Group_2711" data-name="Group 2711" transform="translate(58.249 53.651)" style="mix-blend-mode: multiply;isolation: isolate">
        <path id="Path_4138" data-name="Path 4138" d="M5680.274,349.087a100.418,100.418,0,0,1,18.759,2.379.217.217,0,0,0,.133-.413c-5.929-2.192-12.63-2.186-18.873-2.466a.25.25,0,0,0-.02.5Z" transform="translate(-5680.04 -348.587)" fill="#fddcbe"/>
      </g>
      <g id="Group_2712" data-name="Group 2712" transform="translate(62.472 67.603)" style="mix-blend-mode: multiply;isolation: isolate">
        <path id="Path_4139" data-name="Path 4139" d="M5696.327,402.661a22.659,22.659,0,0,0,.324,4.763.192.192,0,0,0,.378-.013,27.384,27.384,0,0,0-.054-4.686c0-.411-.643-.48-.648-.064Z" transform="translate(-5696.321 -402.381)" fill="#fddcbe"/>
      </g>
      <g id="Group_2713" data-name="Group 2713" transform="translate(64.828 66.94)" style="mix-blend-mode: multiply;isolation: isolate">
        <path id="Path_4140" data-name="Path 4140" d="M5705.926,400.163c.092,1.67-.645,3.265-.5,4.914a.147.147,0,0,0,.279.028,13.566,13.566,0,0,0,.809-5.041c-.02-.377-.607-.276-.587.1Z" transform="translate(-5705.406 -399.826)" fill="#fddcbe"/>
      </g>
      <g id="Group_2714" data-name="Group 2714" transform="translate(67.403 69.037)" style="mix-blend-mode: multiply;isolation: isolate">
        <path id="Path_4141" data-name="Path 4141" d="M5716.524,408.092a18.418,18.418,0,0,0-1.188,4.639.192.192,0,0,0,.369.087,28.387,28.387,0,0,0,1.354-4.522c.094-.347-.432-.557-.535-.2Z" transform="translate(-5715.336 -407.91)" fill="#fddcbe"/>
      </g>
      <path id="Path_4142" data-name="Path 4142" d="M5582.595,555.022c-2.255.833-4.154,2.5-6.44,3.356-2.317.867-5.121,1.6-7.581,1.06-.317-.07-.441.462-.132.557a12.845,12.845,0,0,0,4.613.6,16.919,16.919,0,0,0-.1,3.512,32.608,32.608,0,0,0,.57,5.375,25.839,25.839,0,0,0,4.227,9.844c.145.207.479-.009.372-.232a38.521,38.521,0,0,1-3.136-9.625,31.711,31.711,0,0,1-.513-4.783c-.05-1.462.133-2.857.191-4.293a13.4,13.4,0,0,0,1.5-.386c2.361-.752,5.656-2.071,6.939-4.356A.42.42,0,0,0,5582.595,555.022Z" transform="translate(-5539.003 -447.808)" fill="#fddcbe" opacity="0.89" style="mix-blend-mode: multiply;isolation: isolate"/>
      <path id="Path_4143" data-name="Path 4143" d="M5732.031,569.087c2.048,1.258,3.584,3.265,5.658,4.552,2.1,1.3,4.708,2.571,7.227,2.524.324-.006.343.539.02.572a12.841,12.841,0,0,1-4.64-.319,16.818,16.818,0,0,1-.588,3.464,32.427,32.427,0,0,1-1.611,5.159,25.829,25.829,0,0,1-6.071,8.826c-.183.175-.468-.1-.319-.3a38.564,38.564,0,0,0,4.961-8.824,31.841,31.841,0,0,0,1.439-4.59c.335-1.424.429-2.828.653-4.248a13.5,13.5,0,0,1-1.4-.674c-2.168-1.2-5.141-3.138-5.952-5.63A.421.421,0,0,1,5732.031,569.087Z" transform="translate(-5659.816 -458.195)" fill="#fddcbe" opacity="0.89" style="mix-blend-mode: multiply;isolation: isolate"/>
      <path id="Path_4144" data-name="Path 4144" d="M5603.356,230.337c.126-4.934,1.667-45.775-41.284-52.88-42.235-6.987-63.4,18.114-66.081,35.976a226.758,226.758,0,0,0-1.968,26.757c20.858-20.542,51.4-28.6,80.171-24.672-1.191,15.3,10.042,27.169,17.449,40.751a11.683,11.683,0,0,1,1.244,5.464,6.841,6.841,0,0,1,3.837.825C5599.839,252.257,5603.167,237.74,5603.356,230.337Z" transform="translate(-5484.018 -167.301)" fill="#d1d3d4"/>
      <path id="Path_4145" data-name="Path 4145" d="M5527.947,328.192c18.334-11.72,42.207-19.574,63.817-14.423q2.32.147,4.631.4C5573.978,305.046,5544.835,311.073,5527.947,328.192Z" transform="translate(-5509.143 -266.304)" fill="#e6e7e8"/>
      <path id="Path_4146" data-name="Path 4146" d="M5608.967,230.337c.126-4.934,1.666-45.775-41.285-52.88-42.234-6.987-63.4,18.114-66.08,35.976l0,.027q.4-.732.812-1.451c15.258-27.085,52.536-36.839,79.733-22.713-1.87-1.329-2.807-3.423-3.744-5.517,26.295,15.589,29.975,51.063,20.242,77.937a7.109,7.109,0,0,1,3.694.841C5605.449,252.257,5608.778,237.74,5608.967,230.337Z" transform="translate(-5489.627 -167.301)" fill="#e6e7e8"/>
    </g>
    <path id="Path_4147" data-name="Path 4147" d="M5514.813,680.37c-9.1,3.711-22.451,10.574-26.407,16-5.487,7.53-1.375,23.019,3.048,37.787a136.24,136.24,0,0,0,25.969-3.242Z" transform="translate(-544.401 -784.077)" fill="#797ab2"/>
    <path id="Path_4148" data-name="Path 4148" d="M5759.97,697.623a12.994,12.994,0,0,0-1.062-1.723c-3.986-5.472-18.426-12.47-27.755-16.17l-2.167,39.434A136.357,136.357,0,0,0,5759.97,697.623Z" transform="translate(-724.537 -783.603)" fill="#797ab2"/>
    <path id="Path_4149" data-name="Path 4149" d="M5458.313,728.1s-4.583-1.962-11.581,13.41a150.716,150.716,0,0,0-9.151,27.261,137.551,137.551,0,0,0,14.244.739q3.994,0,7.933-.23c2.323-6.329,4.987-11.739,8.032-15.561C5480.769,737.429,5458.313,728.1,5458.313,728.1Z" transform="translate(-508.707 -819.369)" fill="#797ab2"/>
    <path id="Path_4150" data-name="Path 4150" d="M5781.679,728.1s-17.806,7.4-12.542,20.519a136.581,136.581,0,0,0,19.747-15.136C5784.414,726.935,5781.679,728.1,5781.679,728.1Z" transform="translate(-753.553 -819.371)" fill="#797ab2"/>
    <path id="Path_4151" data-name="Path 4151" d="M5486.148,794.026q.823.01,1.648.01,4,0,7.933-.23c.575-1.565,1.17-3.076,1.787-4.518-2.535-9.507-4.806-19.037-8.53-28.154C5487.393,772.077,5487.038,783.043,5486.148,794.026Z" transform="translate(-544.678 -843.895)" fill="#797ab2" opacity="0.34" style="mix-blend-mode: multiply;isolation: isolate"/>
    <path id="Path_4152" data-name="Path 4152" d="M5126.123,624.571c-5.492,10.368-16.635,18.287-28.86,15.321-12.5-3.164-22.257-13.749-23.622-26.2-8.523.84-16.127,3.5-21,6.579a22.21,22.21,0,0,0-2.35,1.711,136.35,136.35,0,0,0,74.753,56.893c2.337-13.345,9.754-29.047,9.5-40.449C5134.42,633.067,5130.916,628.389,5126.123,624.571Z" transform="translate(-221.856 -734.691)" fill="#41beb1"/>
  </g>
</svg>
